<svg width="89" height="89" viewBox="0 0 89 89" fill="none" xmlns="http://www.w3.org/2000/svg">
<g clip-path="url(#clip0_2581_300)">
<path d="M0.0141296 77.0103C0.0141296 83.2857 5.10104 88.3719 11.3758 88.3719H76.767C83.0428 88.3719 88.129 83.285 88.129 77.0103V11.619C88.129 5.34325 83.0421 0.257019 76.7674 0.257019H11.3761C5.10036 0.257019 0.0141296 5.34393 0.0141296 11.6187V77.0099V77.0103Z" fill="#563D7C"/>
<path d="M36.5532 39.2344V26.7561H47.5369C48.5833 26.7561 49.5918 26.8432 50.5631 27.0177C51.5344 27.1919 52.3939 27.503 53.1411 27.9515C53.8881 28.4 54.4859 29.0227 54.9344 29.8195C55.3826 30.6167 55.607 31.6379 55.607 32.8829C55.607 35.1246 54.9344 36.7437 53.5893 37.7399C52.2445 38.7363 50.5259 39.2344 48.4335 39.2344H36.5532ZM24.8218 17.64V70.9908H50.6753C53.0664 70.9908 55.3953 70.6921 57.6618 70.0942C59.9284 69.4963 61.9457 68.5749 63.7142 67.3296C65.4824 66.0843 66.8898 64.4776 67.9358 62.5101C68.9822 60.5423 69.505 58.2135 69.505 55.5236C69.505 52.1859 68.6955 49.3342 67.0767 46.9682C65.4576 44.6018 63.0042 42.9455 59.7164 41.999C62.1075 40.8535 63.9135 39.3837 65.1341 37.5905C66.3542 35.7972 66.9645 33.5558 66.9645 30.8655C66.9645 28.3749 66.5535 26.2828 65.7316 24.589C64.9096 22.8956 63.7514 21.5381 62.2569 20.5168C60.7627 19.4956 58.9695 18.7607 56.8771 18.3126C54.785 17.8641 52.4686 17.64 49.928 17.64H24.8218ZM36.5532 61.8747V47.2294H49.3302C51.8707 47.2294 53.9132 47.8145 55.4576 48.9855C57.0017 50.1561 57.7741 52.1112 57.7741 54.851C57.7741 56.246 57.5372 57.3915 57.064 58.2882C56.5907 59.1848 55.9557 59.8949 55.1585 60.4177C54.3617 60.9409 53.4399 61.3144 52.3939 61.5388C51.3475 61.7625 50.2519 61.8747 49.1061 61.8747H36.5532Z" fill="white"/>
</g>
<defs>
<clipPath id="clip0_2581_300">
<rect width="88.1149" height="88.1149" fill="white" transform="translate(0.0141296 0.257019)"/>
</clipPath>
</defs>
</svg>
