<svg width="88" height="87" viewBox="0 0 88 87" fill="none" xmlns="http://www.w3.org/2000/svg">
<path d="M2.11188 1.41827H85.9046V85.211H2.11188V1.41827Z" fill="#F5DE19"/>
<path d="M58.3997 66.8825C59.1136 68.3327 60.2229 69.5516 61.5995 70.3988C62.9761 71.246 64.5641 71.6869 66.1805 71.6707C69.4424 71.6707 71.5282 70.0397 71.5282 67.7803C71.5282 65.0869 69.3855 64.1233 65.7944 62.5522L63.8253 61.7083C58.1393 59.2873 54.3687 56.2558 54.3687 49.8456C54.3687 43.9413 58.8576 39.4434 65.8991 39.4434C68.1786 39.2788 70.4561 39.7889 72.4475 40.9102C74.439 42.0316 76.0562 43.7144 77.0974 45.7488L70.9417 49.684C70.5407 48.6753 69.8426 47.8123 68.9399 47.2094C68.0372 46.6065 66.9726 46.2923 65.8872 46.3084C65.4136 46.261 64.9354 46.3128 64.483 46.4604C64.0305 46.608 63.6138 46.8483 63.2593 47.1658C62.9049 47.4834 62.6205 47.8713 62.4242 48.3049C62.228 48.7385 62.1242 49.2082 62.1195 49.684C62.1195 52.0452 63.5829 53.0028 66.9615 54.4722L68.9306 55.3161C75.6221 58.186 79.4047 61.1098 79.4047 67.6845C79.4047 74.774 73.8355 78.6584 66.357 78.6584C63.4431 78.844 60.5378 78.1825 57.9916 76.7535C55.4453 75.3245 53.3671 73.1892 52.0075 70.6053L58.3997 66.8825ZM30.5835 67.5648C31.8194 69.7584 32.9447 71.6138 35.65 71.6138C38.2356 71.6138 39.8695 70.6023 39.8695 66.667V39.8923H47.7431V66.7718C47.7431 74.9236 42.9549 78.6344 35.9851 78.6344C33.5215 78.7691 31.0747 78.1551 28.9666 76.8732C26.8584 75.5913 25.1874 73.7015 24.1734 71.4522L30.5835 67.5648Z" fill="white"/>
</svg>
