<svg width="115" height="87" viewBox="0 0 115 87" fill="none" xmlns="http://www.w3.org/2000/svg">
<path d="M97.7407 49.5198C94.254 49.5244 90.814 50.318 87.6807 51.8407C86.6997 50.2202 85.9422 48.4758 85.4284 46.6542C85.1333 45.2264 85.065 43.7613 85.2262 42.3124C85.5652 40.7181 86.0049 39.1467 86.5427 37.6075C86.5229 37.4062 86.3008 36.455 84.0684 36.4234C81.8359 36.3918 79.9127 36.8457 79.7065 37.4338C79.3188 38.508 79.0074 39.608 78.7747 40.7257C76.927 45.2629 74.6527 49.6162 71.9821 53.7274C70.4859 51.2858 69.8705 48.4094 70.2374 45.5727C70.5763 43.9784 71.016 42.407 71.5539 40.8678C71.5341 40.6665 71.312 39.7153 69.0795 39.6837C66.8471 39.6521 64.9239 40.106 64.7177 40.6941C64.5115 41.2822 64.2498 42.6677 63.7859 43.986C63.3219 45.3043 57.9053 57.3508 56.4858 60.4572C55.7561 62.036 55.1257 63.3228 54.6815 64.1911C54.6605 64.2475 54.6339 64.3017 54.6022 64.353L53.9956 65.5055V65.5253C53.6902 66.0699 53.3651 66.5752 53.2025 66.5752C52.9189 65.4475 52.9326 64.266 53.2421 63.1452C54.0352 58.9652 55.9782 52.4683 55.9584 52.2433C55.9584 52.1209 56.3232 50.9921 54.7014 50.4079C54.3252 50.2297 53.9028 50.172 53.4924 50.2427C53.0819 50.3134 52.7036 50.509 52.4094 50.8026C52.2667 50.8026 52.1675 51.146 52.1675 51.146C52.1675 51.146 53.9321 43.84 48.801 43.84C46.8029 44.24 44.9053 45.0338 43.2199 46.1747C41.5344 47.3155 40.0952 48.7803 38.9869 50.4829C37.607 51.2289 34.6687 52.8235 31.5242 54.5405C30.3346 55.2076 29.0895 55.8746 27.9356 56.5141C27.8563 56.4351 27.7731 56.3325 27.6937 56.2535C21.4484 49.6303 9.96887 44.957 10.4645 36.0958C10.6469 32.8671 11.7612 24.3887 32.5076 14.0908C49.5822 5.71506 63.1712 8.03595 65.5227 13.1829C68.8892 20.5324 58.2424 34.1775 40.6008 36.155C38.6491 36.5491 36.6334 36.5016 34.7026 36.0158C32.7719 35.53 30.9756 34.6185 29.4464 33.3486C28.5146 32.3382 28.3718 32.2789 28.0268 32.4802C27.4598 32.7842 27.8246 33.692 28.0268 34.217C28.6998 35.4293 29.6101 36.4951 30.7039 37.3513C31.7977 38.2076 33.0528 38.8369 34.3951 39.2021C41.3353 40.695 48.5712 39.9812 55.082 37.1615C65.7883 33.0447 74.1155 21.5981 71.6728 12.0107C69.2183 2.2811 52.9963 -0.927886 37.6427 4.5112C28.0258 7.73231 19.1399 12.806 11.4915 19.443C3.03357 27.3175 1.69727 34.1578 2.24448 37.0273C4.22713 47.2029 18.3079 53.8221 23.9426 58.7363C23.688 58.8803 23.4316 59.0211 23.1733 59.1586C20.354 60.5519 9.60803 66.1449 6.9156 72.0577C3.87422 78.7677 7.40333 83.5634 9.73492 84.2108C13.2482 85.0479 16.9364 84.7721 20.2846 83.422C23.6329 82.0719 26.474 79.7148 28.4115 76.6797C30.0613 74.1623 31.0754 71.2853 31.3674 68.2937C31.6595 65.3021 31.2208 62.2845 30.0888 59.4981C30.0697 59.453 30.0428 59.4116 30.0095 59.3757L32.2181 58.085C33.5602 57.2953 34.9193 56.5346 36.2945 55.8036C35.469 58.1736 34.9844 60.6479 34.8551 63.153C34.5748 66.9927 35.7553 70.7968 38.1621 73.8102C38.5284 74.124 38.9535 74.3623 39.413 74.5114C39.8724 74.6605 40.357 74.7173 40.8387 74.6785C43.2179 74.6785 44.3083 72.705 45.5019 70.3604C46.9611 67.4948 48.2776 64.1635 48.2776 64.1635C48.2776 64.1635 46.636 73.1668 51.0969 73.1668C52.7187 73.1668 54.3604 71.067 55.0939 70.0091V70.0289L55.2169 69.8276L55.4786 69.4052V69.3658C56.1289 68.2369 57.5881 65.6713 59.7571 61.4124C62.5566 55.922 65.253 49.058 65.253 49.058C65.5131 50.5665 65.8721 52.0564 66.3276 53.5182C66.9807 55.2902 67.7531 57.0164 68.6394 58.6849C67.9891 59.5928 67.5846 60.098 67.5846 60.098L67.6044 60.1177C67.0771 60.8045 66.51 61.5505 65.8795 62.2768C64.0037 64.3296 62.2633 66.5011 60.6691 68.7776C60.4323 69.16 60.3509 69.6179 60.4415 70.058C60.5321 70.4981 60.788 70.8871 61.1569 71.1459C61.9916 71.5783 62.9431 71.7345 63.8731 71.5919C65.2746 71.5132 66.6527 71.1996 67.9494 70.6644C69.2025 70.2254 70.3847 69.6071 71.4587 68.829C72.566 68.0654 73.4572 67.0311 74.0468 65.8256C74.6364 64.62 74.9045 63.2837 74.8252 61.9452C74.7006 60.2592 74.2679 58.6099 73.5484 57.0785C73.7507 56.7943 73.945 56.514 74.1353 56.2299C76.3897 52.8803 78.4216 49.3876 80.218 45.774C80.4781 47.2825 80.8371 48.7724 81.2926 50.2342C81.8313 51.7655 82.4944 53.2506 83.2753 54.6747C80.6818 56.6609 78.6389 59.2717 77.3392 62.261C76.0624 65.9357 77.0537 67.5896 78.9254 67.9724C79.9495 68.0427 80.9735 67.8339 81.8874 67.3685C83.2312 66.9289 84.4971 66.2816 85.6386 65.4503C86.8423 64.7431 87.8505 63.7492 88.5724 62.5579C89.2943 61.3667 89.7074 60.0154 89.7744 58.6257C89.6844 57.2386 89.3697 55.8751 88.8426 54.5879C92.265 53.2569 95.9758 52.8326 99.6123 53.3564C109.264 54.4853 111.171 60.4809 110.806 63.007C110.635 63.9025 110.274 64.7512 109.746 65.4961C109.218 66.2409 108.535 66.8645 107.745 67.3251C107.075 67.7475 106.853 67.8895 106.912 68.1935C106.992 68.6395 107.309 68.6158 107.884 68.5369C109.339 68.0868 110.622 67.2085 111.565 66.0176C112.508 64.8267 113.066 63.3793 113.166 61.8663C113.471 55.9457 107.793 49.4527 97.7526 49.5119L97.7407 49.5198ZM23.2724 74.497C20.0685 77.9704 15.6075 79.2808 13.6804 78.1717C11.6105 76.9876 12.4234 71.8564 16.357 68.1777C18.6903 66.0869 21.2124 64.2146 23.891 62.5847C24.3589 62.3005 25.0489 61.8979 25.8737 61.4005L26.0957 61.2782L26.5835 60.9743C27.2862 63.318 27.3499 65.8057 26.7681 68.182C26.1862 70.5584 24.9798 72.7379 23.2724 74.497ZM46.5923 58.7086C45.4781 61.4124 43.1465 68.3395 41.7269 67.9527C40.5096 67.6291 39.7443 62.3794 41.485 57.193C42.364 54.6962 43.6442 52.3581 45.2759 50.2698C47.0206 48.3317 48.9477 47.6844 49.4117 48.4738C48.9884 52.006 48.0382 55.4556 46.5923 58.7086ZM65.8359 67.8738C65.368 68.1145 64.9239 68.2685 64.7217 68.158C64.5789 68.079 64.9239 67.7632 64.9239 67.7632C64.9239 67.7632 67.3388 65.1779 68.2904 64.0096C68.8377 63.3228 69.48 62.5176 70.1779 61.6058V61.8663C70.1779 64.9529 67.1762 67.033 65.8399 67.8817L65.8359 67.8738ZM80.682 64.503C80.337 64.2622 80.3965 63.453 81.5544 60.9308C82.3594 59.311 83.4842 57.8692 84.8614 56.6917C85.0725 57.2892 85.1824 57.9174 85.1866 58.5508C85.2022 59.8988 84.7692 61.2142 83.955 62.2916C83.1409 63.369 81.9915 64.1479 80.686 64.5069L80.682 64.503Z" fill="#CD6799"/>
</svg>
